# xmcd
#
# Track frame offsets:
#	150
#	24193
#	45351
#	68337
#	87687
#	128749
#	159071
#	228268
#	264929
#	292152
#
# Disc length: 4344 seconds
# Revision: 2
# Processed by: cddbd v1.5.2PL0 Copyright (c) Steve Scherf et al.
# Submitted via: dBpowerAMP V12.0
#
DISCID=7310f60a
DTITLE=B.B. King - Live at the Royal Albert Hall 2011
DYEAR=2012
DGENRE=Blues
TTITLE0=I Need You So
TTITLE1=Key to the Highway
TTITLE2=See That My Grave Is Kept Clean
TTITLE3=All Over Again
TTITLE4=Rock Me Baby
TTITLE5=You Are My Sunshine
TTITLE6=B.B. Jams with Guests
TTITLE7=The Thrill Is Gone
TTITLE8=Guess Who
TTITLE9=When the Saints Go Marching In
EXTD=
EXTT0=
EXTT1=
EXTT2=
EXTT3=
EXTT4=
EXTT5=
EXTT6=
EXTT7=
EXTT8=
EXTT9=
PLAYORDER=
